<?xml version="1.0" encoding="UTF-8"?>
<!-- Generated by Pixelmator Pro 3.0 -->
<svg width="20" height="15" viewBox="0 0 20 15" xmlns="http://www.w3.org/2000/svg" xmlns:xlink="http://www.w3.org/1999/xlink">
    <g id="Group">
        <path id="Path" fill="#000000" stroke="none" d="M 10.118937 1.014507 C 13.254898 1.166094 15.45607 2.640911 16.277166 5.138942 C 16.564552 6.013727 16.656136 6.717976 16.630871 7.861196 C 16.615082 8.631765 16.558237 9.294958 16.514023 9.244431 C 16.50139 9.231796 16.346645 8.786509 16.166636 8.255956 C 15.989784 7.725399 15.762404 7.115892 15.664503 6.897985 C 14.890776 5.192629 13.618076 3.99888 11.960092 3.430429 C 11.167416 3.155676 10.396849 3.03567 9.439954 3.03567 C 8.767284 3.03567 8.391476 3.06725 7.750387 3.174626 C 5.795543 3.499906 3.720694 4.393638 1.986915 5.656865 C 1.446886 6.048466 1.036336 6.395854 0.540521 6.879037 C 0.079443 7.327483 0.085759 7.327483 0.174185 6.904301 C 0.499466 5.293688 1.715322 3.784131 3.572264 2.678808 C 5.186037 1.721914 7.074561 1.147145 9.029405 1.023981 C 9.525221 0.99556 9.686281 0.9924 10.118937 1.014507 Z"/>
        <path id="path1" fill="#000000" stroke="none" d="M 19.72262 1.390316 C 19.700514 1.462952 19.627876 2.037722 19.571032 2.571435 C 19.514187 3.101989 19.514187 5.382113 19.571032 6.061098 C 19.637352 6.869563 19.72262 7.643289 19.908945 9.077051 C 20.003687 9.816038 20.095272 10.567658 20.114218 10.747669 C 20.161591 11.174008 20.161591 11.894047 20.114218 12.093005 C 20.003687 12.582506 19.504711 13.053059 18.961525 13.185698 C 18.734142 13.239384 18.156219 13.229909 17.856201 13.166748 C 17.253012 13.040425 16.517181 12.753042 15.708716 12.333017 C 14.780245 11.849834 14.053889 11.40139 11.966407 10.018156 C 9.907347 8.657028 9.259944 8.259113 8.549378 7.924358 C 8.328314 7.820141 8.145145 7.725399 8.145145 7.715925 C 8.145145 7.684344 8.622014 7.535914 8.843079 7.501176 C 9.717863 7.359064 10.864241 7.655921 12.424327 8.435965 C 12.648551 8.549654 13.397011 8.947571 14.082312 9.323381 C 15.790825 10.255011 16.431913 10.558186 17.211956 10.79504 C 17.584608 10.905573 18.108847 11.000315 18.146744 10.959261 C 18.159376 10.946627 18.175165 10.76346 18.181482 10.551868 C 18.194115 10.131845 18.146744 9.632872 17.998314 8.650713 C 17.821463 7.469595 17.796198 7.204318 17.796198 6.424275 C 17.796198 5.868455 17.80883 5.590546 17.849886 5.318952 C 18.055161 3.989406 18.554134 2.852502 19.435236 1.684018 C 19.678406 1.365052 19.757357 1.286101 19.72262 1.390316 Z"/>
    </g>
</svg>
