<svg width="11" height="22" viewBox="0 0 11 22" fill="none" xmlns="http://www.w3.org/2000/svg">
<path d="M10.3062 0.830857L9.9009 3.37851C9.35229 3.2956 8.74931 3.24 8.32037 3.24C7.55648 3.24 6.96143 3.40233 6.61395 3.88368C6.4503 4.11037 6.37464 4.36622 6.33656 4.60929C6.29889 4.84967 6.29358 5.10954 6.29358 5.36066V7.13607V7.63607H6.79358H9.83309L9.60564 10.3137H6.79358H6.29358V10.8137V21.5H2.80632V10.8137V10.3137H2.30632H0.5V7.63607H2.30632H2.80632V7.13607V4.86127C2.80632 3.37292 3.15648 2.31103 3.85175 1.61569C4.54729 0.92007 5.6795 0.5 7.44771 0.5C8.50719 0.5 9.31793 0.633072 10.3062 0.830857Z" fill="white" stroke="white"/>
</svg>
