<?xml version="1.0" encoding="UTF-8"?>
<!-- Generated by Pixelmator Pro 3.0 -->
<svg width="24" height="24" viewBox="0 0 24 24" xmlns="http://www.w3.org/2000/svg" xmlns:xlink="http://www.w3.org/1999/xlink">
    <g id="Group">
        <g id="g1">
            <path id="Path" fill="#ffffff" stroke="none" d="M 12.246173 10.491721 L 23.80756 10.491721 C 23.935019 11.203999 24 11.883786 24 12.533583 C 24 14.840362 23.51515 16.899719 22.547953 18.711653 C 21.580757 20.523586 20.201187 21.940643 18.409246 22.960325 C 16.617306 23.980005 14.562948 24.492346 12.246173 24.492346 C 10.576694 24.492346 8.987191 24.169947 7.477664 23.527647 C 5.968135 22.885349 4.666042 22.015621 3.571384 20.920961 C 2.476726 19.826303 1.606998 18.524212 0.964699 17.014683 C 0.322399 15.505155 -0 13.915651 -0 12.246173 C -0 10.576694 0.322399 8.987191 0.964699 7.477663 C 1.606998 5.968134 2.476726 4.666042 3.571384 3.571384 C 4.666042 2.476725 5.968135 1.606997 7.477664 0.964699 C 8.987191 0.322399 10.576694 0 12.246173 0 C 15.435176 0 18.171822 1.067167 20.458607 3.203999 L 17.124647 6.410496 C 15.817556 5.145893 14.190565 4.513588 12.246173 4.513588 C 10.874102 4.513588 9.606997 4.858482 8.442362 5.550764 C 7.277726 6.240551 6.355514 7.180256 5.675726 8.364886 C 4.995939 9.549515 4.656045 10.844111 4.656045 12.248672 C 4.656045 13.653233 4.995939 14.94533 5.675726 16.132458 C 6.355514 17.319588 7.277726 18.256794 8.442362 18.946579 C 9.606997 19.636364 10.874102 19.983753 12.246173 19.983753 C 13.170884 19.983753 14.020619 19.856295 14.797875 19.601374 C 15.575132 19.346453 16.212433 19.026554 16.712276 18.644173 C 17.21212 18.261793 17.646986 17.82443 18.019369 17.337082 C 18.391752 16.847235 18.664167 16.38488 18.841612 15.950016 C 19.016558 15.515151 19.136518 15.100282 19.2015 14.705405 L 12.246173 14.705405 L 12.246173 10.491721 L 12.246173 10.491721 Z"/>
        </g>
    </g>
</svg>
