<?xml version="1.0" encoding="UTF-8"?>
<!-- Generated by Pixelmator Pro 3.0 -->
<svg width="60" height="50" viewBox="0 0 60 50" xmlns="http://www.w3.org/2000/svg" xmlns:xlink="http://www.w3.org/1999/xlink">
    <g id="Group">
        <path id="Path" fill="#ffffff" stroke="none" d="M 46.788036 14.013191 C 46.875999 14.407143 46.951946 14.763905 47.039577 15.117771 C 47.215839 15.82954 47.110767 16.543682 47.064377 17.257137 C 47.055084 17.399944 47.027554 17.546024 46.830837 17.606499 C 46.486599 17.377735 46.680721 16.926659 46.446522 16.605816 C 45.291183 21.349291 42.477978 25.010933 39.122406 28.333096 C 38.968418 27.959171 39.21032 27.708702 39.306969 27.331486 C 38.827267 27.765902 38.398666 28.14905 37.975609 28.538223 C 37.163532 29.285259 36.289288 29.951948 35.332928 30.499943 C 34.332638 31.073109 33.627525 31.980059 32.763191 32.706116 C 32.017288 33.33268 31.251705 33.92675 30.423315 34.441063 C 30.133192 34.621189 29.893276 34.627529 29.588421 34.443119 C 28.255842 33.637032 27.086309 32.632256 25.991901 31.536736 C 25.616896 31.161356 25.221134 30.828547 24.762878 30.560837 C 23.405365 29.767788 22.212475 28.763134 21.088879 27.671223 C 20.988754 27.573919 20.879156 27.486357 20.722889 27.349569 C 20.715048 27.72316 21.036705 27.947641 20.995529 28.255339 C 20.735163 28.367558 20.637249 28.186792 20.523514 28.071373 C 17.825544 25.333384 15.583585 22.285191 14.162335 18.68257 C 13.883778 17.976475 13.683657 17.247723 13.626779 16.467873 C 13.305728 16.802006 13.559542 17.345135 13.085699 17.69228 C 12.910127 17.033573 12.760415 16.445919 12.848757 15.828167 C 13.10158 14.060246 13.719881 12.411755 14.511234 10.821518 C 15.043665 9.751579 15.597746 8.692608 16.236162 7.682167 C 16.413193 7.401974 16.395977 7.2197 16.184185 6.972961 C 15.560774 6.246677 15.027763 5.468487 14.654283 4.568836 C 14.096965 3.22636 14.537698 2.125145 15.412897 1.150558 C 16.641163 -0.217194 18.438751 -0.365555 19.933268 0.705841 C 20.823866 1.344296 20.823734 1.344204 20.203112 2.209515 C 20.138515 2.299583 20.076643 2.391602 20.045326 2.520901 C 20.293041 2.320831 20.561766 2.141655 20.784971 1.917213 C 21.973232 0.722359 23.489695 0.350227 25.086239 0.212257 C 28.077227 -0.046219 31.077198 0.071598 34.069878 0.13081 C 35.784706 0.164738 37.506382 0.454681 38.907394 1.6297 C 39.256855 1.922791 39.594967 2.229408 39.99588 2.481422 C 39.798225 2.244587 39.603935 2.004833 39.401913 1.771782 C 39.220047 1.561993 39.236313 1.385086 39.443577 1.196548 C 40.455849 0.275738 41.620003 -0.23402 42.985966 0.117104 C 44.022518 0.383553 44.736057 1.130028 45.240791 2.060867 C 45.79388 3.080879 45.63784 4.09314 45.139641 5.073898 C 44.814835 5.713299 44.426075 6.322334 43.936695 6.849598 C 43.633835 7.175896 43.634628 7.450562 43.855885 7.823841 C 44.830421 9.467976 45.762623 11.135506 46.410622 12.943535 C 46.533844 13.287376 46.657722 13.630981 46.788036 14.013191 M 29.821119 14.119305 C 29.52586 13.159916 29.105337 12.694637 28.432528 12.673 C 28.862572 12.867416 28.739683 13.126778 28.555071 13.409309 C 29.106724 13.529392 29.457531 13.883038 29.85557 14.240395 C 29.931938 14.434349 30.037687 14.451286 30.158978 14.282173 C 30.485594 13.826786 30.933315 13.542171 31.52515 13.358665 C 31.012993 13.000645 31.343554 12.823982 31.665834 12.650494 C 31.431906 12.530205 31.278843 12.642498 31.133028 12.717541 C 30.713144 12.933632 30.502277 13.325684 30.306282 13.731007 C 30.207481 13.935337 30.163309 14.210873 29.821119 14.119305 M 19.688023 21.211803 C 19.473898 20.735367 19.394531 20.193253 19.026007 19.792328 C 18.461645 19.178354 17.997362 18.492697 17.571985 17.780399 C 16.561193 16.087822 16.042282 14.290344 16.409739 12.300598 C 16.444206 12.113968 16.590649 11.919769 16.451725 11.692982 C 16.124449 11.836914 16.185999 12.363476 15.678548 12.416176 C 15.807727 11.146248 16.171858 9.966583 16.446386 8.764713 C 15.521522 10.152031 14.719225 11.593166 14.211839 13.183571 C 14.550714 12.87022 14.705739 12.401546 15.108948 12.121746 C 15.234585 12.336002 15.137015 12.464668 15.077377 12.583599 C 14.030495 14.671383 14.189654 16.762726 15.028115 18.867733 C 15.872619 20.987909 17.079508 22.893442 18.442068 24.708746 C 18.684483 25.031708 18.949633 25.337606 19.204285 25.651384 C 19.020597 25.044159 18.53643 24.615036 18.393991 23.968559 C 18.731514 24.053087 18.733137 24.051762 18.871191 24.220974 C 20.371702 26.060171 22.102411 27.653456 24.020624 29.047052 C 24.155233 29.144848 24.282251 29.250341 24.489494 29.216692 C 24.35103 28.753729 23.897495 28.489195 23.822006 28.029593 C 24.036648 27.949949 24.125044 28.058189 24.218153 28.138178 C 25.028904 28.834661 25.818489 29.552824 26.514946 30.367582 C 27.451134 31.462788 28.458277 32.478539 29.710382 33.221832 C 29.881578 33.323463 30.012201 33.417034 30.224001 33.279346 C 31.204359 32.642033 32.122932 31.936556 32.886799 31.041363 C 33.715549 30.070137 34.58252 29.134676 35.577816 28.328974 C 35.738499 28.198902 35.878452 27.998177 36.167744 28.029459 C 36.124405 28.516935 35.588589 28.742798 35.55592 29.270531 C 35.675854 29.204313 35.746635 29.172058 35.810219 29.129143 C 37.752998 27.817865 39.440708 26.227354 40.954472 24.444027 C 41.072205 24.305328 41.174129 23.972546 41.408207 24.149734 C 41.66124 24.341267 41.355511 24.536612 41.261787 24.715336 C 41.099648 25.024529 40.8442 25.284046 40.779079 25.657814 C 40.865307 25.62571 40.900562 25.552725 40.949856 25.490938 C 42.466259 23.590277 43.829971 21.588493 44.786095 19.34486 C 45.239536 18.280802 45.602966 17.182156 45.63266 15.987476 C 45.66227 14.796124 45.441971 13.68092 44.946114 12.608452 C 44.889885 12.486839 44.782391 12.355316 44.995857 12.206264 C 45.405239 12.493149 45.53035 13.002609 45.864639 13.352047 C 45.334282 11.742069 44.559475 10.25631 43.595798 8.859032 C 43.86586 10.029858 44.24094 11.174095 44.316555 12.449684 C 43.794765 12.294716 43.869884 11.761547 43.463184 11.616856 C 43.481476 11.721634 43.497574 11.796074 43.50713 11.871338 C 43.597137 12.580448 43.79752 13.278339 43.711857 14.005116 C 43.543415 15.434204 43.143982 16.791794 42.313034 17.975681 C 41.381416 19.302994 40.444103 20.619715 39.857155 22.148033 C 39.798317 22.301245 39.718346 22.476894 39.380836 22.455175 C 39.992741 20.689013 40.460075 18.932301 39.93977 17.070175 C 39.405228 15.157078 38.0625 13.943592 36.523102 12.871231 C 36.788368 13.889465 37.284054 14.792912 37.730701 15.816608 C 37.921036 15.410633 37.878307 15.140404 37.66074 14.885227 C 37.571671 14.780766 37.420155 14.669724 37.533024 14.516174 C 37.66151 14.341393 37.817039 14.47876 37.962826 14.525715 C 39.164783 14.912785 40.05946 16.749859 38.855553 17.964275 C 38.184471 18.641212 37.754009 19.391903 37.380898 20.263962 C 36.765923 21.701313 35.69381 22.907267 35.101521 24.373568 C 35.052929 24.493866 34.998928 24.65345 34.698814 24.631731 C 34.888542 23.720625 35.276535 22.863649 35.367142 21.801907 C 34.919056 22.637243 34.408955 23.245728 33.811153 23.778198 C 33.033718 24.470661 32.418602 25.197573 32.679882 26.373978 C 32.763718 26.751455 32.711033 27.239792 32.388237 27.59779 C 32.195469 27.461666 32.236588 27.306404 32.217815 27.169268 C 32.131592 26.539467 32.077923 25.905703 31.772594 25.324089 C 31.48547 24.777159 31.153494 24.25688 30.974033 23.648094 C 30.84897 23.223843 30.949974 22.803253 30.875587 22.360258 C 30.39275 22.427513 29.930172 22.475447 29.474468 22.390308 C 29.151529 22.329975 29.073496 22.468658 29.091084 22.748007 C 29.14142 23.547602 28.841404 24.238646 28.447821 24.911596 C 28.100113 25.506126 27.837761 26.134325 27.838226 26.848663 C 27.838383 27.087482 27.839184 27.361328 27.49909 27.579557 C 27.370037 27.01115 27.257555 26.482206 27.366779 25.961637 C 27.490307 25.372898 27.286974 24.935881 26.915861 24.528873 C 26.138454 23.676271 25.188408 22.97097 24.681648 21.879333 C 24.710299 22.798706 25.099724 23.63637 25.242744 24.619314 C 24.865294 24.425289 24.74124 24.159897 24.640041 23.906816 C 24.296181 23.0469 23.873003 22.239468 23.289263 21.512686 C 22.970039 21.115236 22.726255 20.656399 22.569098 20.169645 C 22.302605 19.344252 21.865244 18.675547 21.23597 18.044653 C 20.10076 16.906517 20.557049 15.106541 22.027044 14.526806 C 22.184513 14.464703 22.37673 14.341915 22.505808 14.523972 C 22.627722 14.695923 22.427942 14.797806 22.33535 14.919174 C 22.170225 15.135597 22.02914 15.361008 22.286694 15.705299 C 22.777195 14.740402 23.211817 13.824036 23.588104 12.789967 C 22.983368 13.068916 22.580273 13.479187 22.158089 13.852806 C 20.596149 15.23505 19.725225 16.940899 19.816793 19.065693 C 19.860344 20.076241 20.139812 21.04143 20.456764 21.995388 C 20.504023 22.137625 20.632717 22.275475 20.430435 22.472765 C 20.058077 22.15011 19.929832 21.68668 19.688023 21.211803 M 27.564966 6.791058 C 26.911484 7.532288 26.513241 8.418339 26.138323 9.316605 C 26.098442 9.412163 26.012585 9.543259 26.12635 9.625744 C 26.374615 9.805763 26.236725 9.991825 26.156324 10.173637 C 25.916424 10.716106 25.584759 11.204792 25.233356 11.678368 C 24.737219 12.347 24.285172 13.044098 23.987556 13.821617 C 23.783564 14.354557 23.514238 14.894035 23.708342 15.607635 C 24.711914 14.718033 25.609102 13.784435 26.888617 13.387581 C 25.866405 12.266346 25.967173 11.343983 27.15564 10.462147 C 28.586557 9.40041 31.111406 9.305256 32.637138 10.282707 C 33.137928 10.603542 33.572792 11.024834 33.762283 11.609161 C 33.990479 12.31282 33.704578 12.877048 33.061882 13.391319 C 34.431431 13.79097 35.311096 14.767162 36.320362 15.631897 C 36.390972 15.335487 36.376541 15.149609 36.345875 14.958538 C 36.172218 13.876553 35.665375 12.946301 35.042801 12.068062 C 34.609638 11.457012 34.161427 10.855446 33.841 10.17355 C 33.781696 10.047352 33.639343 9.871639 33.741299 9.778248 C 34.066719 9.480194 33.82304 9.221592 33.719109 8.966434 C 33.484421 8.390282 33.197384 7.838684 32.850605 7.319988 C 31.55328 5.379494 29.244339 5.124073 27.564966 6.791058 M 23.741743 16.572964 C 23.37471 16.819702 22.982555 16.950085 22.528341 16.913006 C 21.846405 16.857342 21.911898 16.089314 21.459654 15.820343 C 20.994028 16.532623 21.142262 17.20586 21.850958 17.446175 C 22.283693 17.592911 22.734385 17.672161 23.212019 17.57399 C 23.564552 17.501537 23.926832 17.378227 24.425161 17.435917 C 23.731054 18.080694 22.959284 18.022934 22.137615 18.075821 C 22.674904 18.449835 23.184984 18.627367 23.726429 18.662235 C 24.920961 18.739164 26.071571 18.5476 27.159393 18.019627 C 27.377125 17.913948 27.5979 17.69252 27.936583 17.900555 C 27.379278 18.536776 26.625586 18.733648 25.869389 19.024183 C 26.257933 19.106092 26.566999 18.982681 26.871424 18.920055 C 28.111574 18.664917 29.087696 18.057747 29.535353 16.792988 C 29.618164 16.559013 29.725601 16.227768 29.594437 16.108604 C 29.22538 15.773319 29.370939 15.384193 29.366184 15.01347 C 29.361345 14.636116 29.198908 14.382595 28.887934 14.193264 C 28.290583 13.829559 27.797251 13.896282 27.20216 14.420483 C 27.006596 14.592758 26.865873 14.83934 26.582436 14.933739 C 26.376545 14.6022 26.812414 14.418018 26.725071 14.114113 C 26.267181 14.24369 25.919659 14.517986 25.564903 14.787991 C 24.900196 15.2939 24.453234 16.01762 23.741743 16.572964 M 34.12442 18.469603 C 35.454292 18.794235 36.753269 18.868395 38.014668 17.987724 C 36.876335 18.157272 36.090611 17.970158 35.849895 17.501038 C 35.979584 17.379772 36.117596 17.462471 36.25378 17.483288 C 36.801807 17.567066 37.337418 17.661488 37.904377 17.519661 C 38.818008 17.291103 39.101425 16.513664 38.499153 15.780678 C 38.385612 15.948864 38.273212 16.120007 38.15617 16.287914 C 37.647163 17.018139 37.183765 17.110348 36.389324 16.651768 C 35.993565 16.423317 35.705444 16.085072 35.42173 15.74007 C 34.941799 15.156445 34.392632 14.653168 33.719826 14.299 C 33.567627 14.218887 33.414703 14.092953 33.205486 14.161221 C 33.298527 14.458996 33.621906 14.647331 33.503017 14.985645 C 33.27586 15.014771 33.204773 14.85334 33.099422 14.740452 C 32.859909 14.483807 32.611828 14.238453 32.292133 14.077248 C 31.57563 13.715961 30.660095 14.250423 30.616364 15.047585 C 30.594818 15.440338 30.681711 15.822437 30.728123 16.208725 C 30.510302 16.258945 30.498484 16.025421 30.355728 16.005219 C 30.373129 17.984119 32.311989 19.035456 33.931755 18.965755 C 33.153419 18.632998 32.346916 18.414381 31.892086 17.643257 C 32.627655 17.881409 33.281498 18.317701 34.12442 18.469603 M 32.226021 21.316462 C 33.135738 20.963987 34.002487 20.547047 34.636974 19.806389 C 31.515604 19.056604 28.432081 19.057487 25.31152 19.814636 C 27.317396 21.639242 29.619984 22.000587 32.226021 21.316462 M 34.927658 5.538918 C 35.511944 5.113247 36.203255 4.938492 36.943478 4.747604 C 36.021358 4.262714 34.416927 4.236263 33.998116 4.847729 C 34.297359 4.922119 34.568779 4.556915 34.949852 4.81633 C 34.239071 5.319042 33.766705 6.139717 32.722164 5.889481 C 32.810608 6.166077 33.005802 6.119274 33.171059 6.134537 C 33.817852 6.194263 34.336666 5.868511 34.927658 5.538918 M 25.299667 4.674141 C 25.521807 4.7295 25.743946 4.784863 26.02936 4.855988 C 25.315628 4.177811 23.842474 4.304031 23.058062 4.780579 C 23.947704 4.87368 24.662018 5.28727 25.381773 5.698048 C 25.837845 5.95834 26.314953 6.18573 26.868887 6.129608 C 27.016293 6.114677 27.174406 6.123363 27.241371 5.89748 C 26.288734 6.090149 25.802437 5.406506 25.217157 4.927208 C 25.139349 4.863487 25.131351 4.75856 25.299667 4.674141 M 31.043068 18.675222 C 30.645283 18.298168 30.317137 17.86097 29.991938 17.345097 C 29.668713 17.892715 29.354965 18.34132 28.926411 18.735813 C 29.636673 18.62332 30.329058 18.735533 31.043068 18.675222 M 25.654238 6.999954 C 25.85585 6.971348 26.059929 6.947769 26.224308 6.685955 C 25.651423 6.562832 25.19602 6.236782 24.662956 5.91814 C 24.796156 6.638474 25.04574 6.909595 25.654238 6.999954 M 34.035248 6.931435 C 34.753967 7.08345 35.226002 6.747883 35.292416 6.011944 C 34.825607 6.188885 34.434326 6.498421 33.959774 6.633251 C 33.753971 6.691727 33.856323 6.815483 34.035248 6.931435 M 41.81847 4.70578 C 41.868481 4.762741 41.918491 4.819706 42.009411 4.923271 C 41.965046 4.23415 42.589088 4.026237 42.873901 3.505142 C 42.492867 3.742706 42.14917 3.891197 41.860935 4.139954 C 41.67416 4.301151 41.603825 4.456055 41.81847 4.70578 M 17.623302 3.787384 C 17.488529 3.720573 17.353758 3.653763 17.12887 3.542278 C 17.503847 4.003674 17.905054 4.312111 18.084066 4.807655 C 18.221634 4.657261 18.335955 4.531387 18.352806 4.312157 C 18.13439 4.153099 17.906713 3.987297 17.623302 3.787384 M 30.656979 3.893745 C 30.708498 3.725258 30.760017 3.556767 30.8393 3.29747 C 30.358212 3.710888 30.306332 4.166348 30.344252 4.651176 C 30.353682 4.771713 30.396832 4.878212 30.544458 4.849964 C 30.661604 4.827557 30.674646 4.721264 30.661131 4.624493 C 30.630571 4.405697 30.580477 4.188557 30.656979 3.893745 M 29.357122 4.503357 C 29.364775 4.630684 29.251059 4.793045 29.458401 4.864674 C 29.753256 4.526882 29.701164 3.930405 29.36503 3.631779 C 29.36503 3.889206 29.36503 4.157631 29.357122 4.503357 Z"/>
        <path id="path1" fill="#ffffff" stroke="none" d="M 35.485565 48.744858 C 27.415628 48.745113 19.393536 48.745224 11.371444 48.745956 C 11.089044 48.745983 10.799696 48.69738 10.622246 49.026508 C 10.541035 49.177128 10.340298 49.141964 10.180552 49.141777 C 7.134438 49.138271 4.08832 49.136597 1.04221 49.131298 C 0.532476 49.130417 0.460328 49.021858 0.68511 48.568764 C 1.478302 46.969925 2.269818 45.370079 3.085562 43.782734 C 3.27285 43.418297 3.271716 43.12923 3.081635 42.762962 C 2.274346 41.207371 1.498055 39.635674 0.712907 38.068626 C 0.432932 37.509838 0.49388 37.416832 1.132733 37.416233 C 2.344817 37.415096 3.556923 37.419468 4.768966 37.412434 C 4.942385 37.411427 5.160079 37.492561 5.271364 37.249378 C 5.171016 36.999428 4.950324 37.080975 4.779088 37.080097 C 3.4873 37.073494 2.195455 37.07811 0.903628 37.077896 C 0.744299 37.077869 0.583968 37.079784 0.425871 37.06356 C 0.165644 37.03685 0.003317 36.862198 4.9e-05 36.623516 C -0.004194 36.313728 0.268652 36.367294 0.465657 36.366714 C 1.853154 36.362648 3.240668 36.364555 4.628176 36.364159 C 4.893812 36.364082 5.145792 36.405277 5.311871 36.078327 C 5.443863 35.818481 5.764419 35.899529 6.014282 35.899567 C 11.165639 35.900307 16.316998 35.905651 21.468353 35.905624 C 32.297367 35.905571 43.126377 35.90266 53.955387 35.902763 C 54.280636 35.902763 54.632244 35.82674 54.797829 36.25919 C 54.864307 36.4328 55.081741 36.359848 55.234241 36.360241 C 56.637699 36.363869 58.041183 36.358967 59.444611 36.366577 C 59.664467 36.367771 59.99966 36.277672 60 36.634808 C 60.000298 36.949715 59.742596 37.079456 59.428997 37.07872 C 58.15313 37.075745 56.877247 37.077507 55.601372 37.077473 C 55.489738 37.077469 55.376003 37.063351 55.266937 37.079987 C 55.095627 37.106117 54.801346 36.97718 54.792801 37.240364 C 54.783627 37.522957 55.082462 37.411434 55.248924 37.412766 C 56.365242 37.421661 57.48167 37.416679 58.598061 37.414711 C 59.638149 37.41288 59.629551 37.407703 59.160404 38.332695 C 58.389198 39.85321 57.633526 41.381596 56.863441 42.902687 C 56.728287 43.169647 56.734184 43.403343 56.869644 43.671104 C 57.696381 45.305279 58.511131 46.945518 59.329952 48.583694 C 59.556408 49.036758 59.498985 49.13176 58.975853 49.131992 C 55.96162 49.133358 52.94738 49.13176 49.933144 49.131088 C 49.691807 49.131035 49.463699 49.133034 49.311413 48.875931 C 49.182121 48.657654 48.935188 48.747147 48.738441 48.746971 C 44.336769 48.743053 39.935089 48.744442 35.485565 48.744858 M 20.126066 45.540619 C 20.333126 45.540501 20.540184 45.540577 20.747244 45.540253 C 21.49214 45.539066 21.699194 45.235924 21.44046 44.519165 C 21.402853 44.414986 21.346825 44.31736 21.298073 44.217319 C 21.095917 43.802475 20.900854 43.38393 20.68779 42.974766 C 20.571993 42.752392 20.580076 42.598541 20.817503 42.462898 C 21.202894 42.242737 21.329281 41.887173 21.32312 41.453926 C 21.311342 40.625893 21.323505 39.79755 21.320843 38.969353 C 21.317686 37.986538 20.985647 37.644936 20.002342 37.639191 C 18.170813 37.62849 16.339134 37.636978 14.507718 37.618088 C 14.111888 37.614002 13.95977 37.751816 13.987025 38.144966 C 14.104981 39.846367 14.04346 41.550667 14.054665 43.253803 C 14.058645 43.858994 14.061635 44.464321 14.053391 45.069431 C 14.048716 45.412582 14.193356 45.552826 14.54251 45.543861 C 15.195083 45.5271 15.84885 45.524925 16.501245 45.545059 C 16.904476 45.557503 17.027216 45.388367 17.006958 45.003727 C 16.98103 44.511414 16.998371 44.016533 17.00585 43.522888 C 17.008945 43.318512 16.99334 43.095547 17.286753 43.051125 C 17.587187 43.005627 17.781296 43.128834 17.879757 43.40485 C 17.959597 43.628662 18.012571 43.86232 18.09692 44.084213 C 18.70672 45.688393 18.280962 45.526562 20.126066 45.540619 M 10.17513 37.634106 C 8.96314 37.633831 7.751 37.62191 6.539216 37.637527 C 5.774643 37.647377 5.445063 37.988411 5.446277 38.710148 C 5.449442 40.591774 5.451611 42.473419 5.460859 44.355015 C 5.464767 45.149864 5.830307 45.537407 6.62243 45.541882 C 8.520099 45.552605 10.417914 45.536186 12.315611 45.544422 C 12.66771 45.545944 12.799325 45.412769 12.794436 45.065529 C 12.783897 44.317276 12.663878 43.574753 12.702785 42.823425 C 12.727493 42.346313 12.702888 41.866798 12.707348 41.388435 C 12.709623 41.14444 12.632662 40.987236 12.357217 40.987938 C 11.607752 40.989841 10.858273 40.988922 10.108806 40.986866 C 9.871364 40.986214 9.753737 41.099354 9.759778 41.336838 C 9.770706 41.76659 9.750311 42.200272 9.801683 42.625225 C 9.911583 43.534271 9.857512 43.61121 8.936399 43.600674 C 8.920456 43.600491 8.904298 43.59927 8.88859 43.601276 C 8.579555 43.640694 8.467757 43.508797 8.465008 43.195606 C 8.455915 42.160328 8.521797 41.123325 8.402838 40.089867 C 8.356421 39.686642 8.531857 39.513309 8.95332 39.520702 C 9.893848 39.537193 10.835108 39.509605 11.775771 39.522247 C 12.071356 39.526218 12.262967 39.432487 12.375091 39.161171 C 12.460205 38.955212 12.576116 38.760075 12.643342 38.548981 C 12.854014 37.887478 12.668765 37.634651 11.993143 37.634174 C 11.419036 37.633766 10.844929 37.634056 10.17513 37.634106 M 26.401396 44.928768 C 26.331635 45.417606 26.554291 45.558712 27.027966 45.552025 C 28.668835 45.528839 30.310225 45.54285 31.951418 45.542477 C 33.559078 45.542107 33.214451 45.580421 33.262177 44.196304 C 33.277309 43.757458 33.079975 43.594955 32.664989 43.599434 C 31.884327 43.607868 31.103493 43.603775 30.322765 43.599243 C 30.154917 43.598267 29.942606 43.676926 29.840734 43.488873 C 29.721081 43.267982 29.934006 43.139942 30.05304 43.006104 C 30.941965 42.006611 31.837059 41.012592 32.731735 40.018219 C 32.903168 39.827682 33.080334 39.644444 33.07906 39.361679 C 33.077053 38.915562 33.076134 38.469372 33.08247 38.023323 C 33.086063 37.770241 32.985989 37.6371 32.719185 37.636761 C 30.711573 37.634209 28.703968 37.628582 26.69636 37.623009 C 26.440199 37.622295 26.340212 37.741238 26.319643 38.001541 C 26.284586 38.445251 26.511877 38.798 26.665785 39.177822 C 26.766245 39.425739 26.94203 39.536396 27.22315 39.528027 C 27.844072 39.509548 28.465807 39.51442 29.087175 39.517342 C 29.287579 39.518288 29.535625 39.460987 29.636536 39.697617 C 29.727289 39.910439 29.529066 40.05098 29.408405 40.18716 C 28.700928 40.98568 28.019691 41.81208 27.260271 42.558544 C 26.601383 43.206184 26.231237 43.906075 26.401396 44.928768 M 36.264515 41.040043 C 35.855816 41.487064 35.463459 41.9505 35.034752 42.377426 C 34.312592 43.096588 33.768887 43.8526 33.945194 44.971638 C 34.014595 45.412109 34.118755 45.577271 34.571259 45.572075 C 36.197727 45.553421 37.824558 45.566807 39.451252 45.566719 C 40.860226 45.566639 40.848709 45.565979 40.828655 44.174229 C 40.823204 43.795998 40.687237 43.66927 40.320442 43.676594 C 39.507439 43.692825 38.693848 43.68232 37.880524 43.678253 C 37.710339 43.677399 37.502781 43.723324 37.415417 43.522072 C 37.322674 43.30843 37.485657 43.16647 37.614563 43.024281 C 38.299633 42.268623 38.937374 41.462074 39.682037 40.770641 C 40.459831 40.048447 40.781677 39.242447 40.660339 38.192421 C 40.612751 37.780609 40.513409 37.647976 40.099613 37.651997 C 38.281719 37.669662 36.463543 37.658615 34.645473 37.65789 C 33.946442 37.657616 33.846596 37.776333 33.961037 38.472466 C 34.099033 39.311859 34.369862 39.545708 35.206493 39.547829 C 35.748707 39.549202 36.290947 39.548058 36.833115 39.553623 C 36.97691 39.555096 37.136955 39.565685 37.211922 39.710274 C 37.302036 39.884068 37.179085 40.011761 37.072868 40.132355 C 36.819988 40.419456 36.565281 40.704945 36.264515 41.040043 M 54.048714 40.651569 C 54.332203 40.08152 54.601307 39.503658 54.904987 38.94458 C 55.067314 38.645741 55.078358 38.341133 55.075451 38.020584 C 55.073025 37.753262 54.941746 37.654541 54.68829 37.655922 C 53.939186 37.660011 53.189991 37.661739 52.440941 37.653618 C 52.160526 37.650581 52.040039 37.806118 51.985336 38.047371 C 51.816746 38.790867 51.650471 39.534885 51.482365 40.278488 C 51.440296 40.464577 51.409706 40.705578 51.189548 40.719402 C 50.94318 40.734871 50.934921 40.479542 50.891029 40.299408 C 50.721901 39.605305 50.541206 38.91346 50.39616 38.214272 C 50.311829 37.807724 50.13739 37.617329 49.690586 37.649166 C 49.135529 37.688721 48.57552 37.659332 48.017654 37.658802 C 47.277672 37.658104 47.080116 37.939377 47.326279 38.651093 C 47.357281 38.74073 47.409496 38.823071 47.452339 38.908558 C 47.780422 39.563183 48.117523 40.213463 48.434933 40.873219 C 49.095798 42.246857 50.063934 43.525848 49.77013 45.19804 C 49.724545 45.457497 49.883759 45.568619 50.141453 45.566769 C 50.858662 45.561623 51.575935 45.562901 52.293167 45.565495 C 52.578419 45.566521 52.689617 45.422153 52.685986 45.148033 C 52.680496 44.733746 52.696598 44.319092 52.686768 43.904984 C 52.678604 43.56097 52.755577 43.244083 52.91003 42.939014 C 53.284016 42.200348 53.652527 41.458908 54.048714 40.651569 M 41.825897 41.888657 C 41.825726 42.923737 41.841827 43.95919 41.817627 44.99371 C 41.807514 45.426079 41.944847 45.581539 42.388554 45.574581 C 43.789536 45.552631 45.191246 45.580681 46.592388 45.564564 C 48.100613 45.547226 47.890873 45.807644 47.918026 44.205166 C 47.924583 43.817982 47.788174 43.661106 47.390076 43.672302 C 46.674099 43.692459 45.957066 43.672997 45.240471 43.67411 C 45.009075 43.674473 44.834103 43.633011 44.826405 43.342644 C 44.812943 42.834637 44.76582 42.32724 44.761333 41.81934 C 44.750935 40.641029 44.759209 39.46257 44.756611 38.28418 C 44.75526 37.674469 44.737885 37.658936 44.148125 37.657784 C 43.606697 37.656723 43.065266 37.658985 42.523842 37.657982 C 41.804165 37.656643 41.802792 37.655895 41.80619 38.353687 C 41.811775 39.500114 41.819344 40.646538 41.825897 41.888657 M 23.679979 37.627853 C 23.489145 37.62175 23.297764 37.622765 23.107573 37.608257 C 22.439816 37.557331 22.38233 37.585232 22.415113 38.268806 C 22.515831 40.368793 22.4303 42.469616 22.468437 44.569633 C 22.471905 44.760426 22.478081 44.951256 22.487831 45.141819 C 22.501472 45.408459 22.62859 45.539387 22.911976 45.536163 C 23.612244 45.528191 24.312727 45.534836 25.013083 45.540684 C 25.286186 45.542969 25.421036 45.433998 25.420231 45.144226 C 25.413637 42.772335 25.410944 40.400421 25.41477 38.02853 C 25.415237 37.738453 25.290419 37.628426 25.013939 37.631935 C 24.600153 37.637184 24.186207 37.629986 23.679979 37.627853 M 15.2699 47.75618 C 14.951617 47.742489 14.633234 47.715179 14.315073 47.717564 C 13.183791 47.726032 12.051077 47.788193 10.921707 47.749088 C 9.247833 47.691139 7.574744 47.730751 5.901458 47.714226 C 5.744689 47.712673 5.532475 47.656353 5.501725 47.92144 C 5.948315 48.121479 54.160404 48.088696 54.474861 47.875889 C 54.419853 47.835464 54.372517 47.770187 54.324623 47.769772 C 41.335796 47.657551 28.346918 47.702751 15.2699 47.75618 Z"/>
        <path id="path2" fill="#ffffff" stroke="none" d="M 9.292484 9.5112 C 9.291653 12.072266 9.28976 14.587803 9.289327 17.103344 C 9.288912 19.507013 9.290071 21.910679 9.290428 24.314346 C 9.290694 26.097393 9.293965 27.880451 9.287961 29.663477 C 9.286903 29.977268 9.308279 30.243401 9.608544 30.451548 C 9.854741 30.622217 9.933908 30.912754 9.696862 31.156797 C 9.475817 31.384375 9.381423 31.651165 9.280282 31.938545 C 9.08448 32.494896 8.740629 32.94413 8.195996 33.220119 C 8.033977 33.302223 7.832732 33.366089 7.834614 33.615582 C 7.83776 34.032501 7.652231 34.301308 7.208414 34.273071 C 6.86508 34.251228 6.667382 33.900349 6.699561 33.393883 C 6.062949 33.131355 5.547332 32.695614 5.312359 32.008682 C 5.205458 31.696154 5.128039 31.400112 4.865572 31.152033 C 4.641258 30.940002 4.697742 30.62977 4.963324 30.448505 C 5.226753 30.268713 5.25639 30.044882 5.256148 29.753561 C 5.250429 22.868401 5.253313 15.983223 5.2629 9.098064 C 5.263196 8.886028 5.220586 8.756584 5.046426 8.61932 C 4.660043 8.314793 4.646026 8.033016 4.986882 7.700413 C 5.13198 7.55883 5.198154 7.415287 5.248063 7.219719 C 5.407726 6.59407 5.749312 6.089123 6.355898 5.804241 C 6.578985 5.699474 6.74016 5.606621 6.704478 5.281303 C 6.669781 4.964973 6.916198 4.738766 7.242539 4.728062 C 7.566678 4.717419 7.816428 4.907799 7.811827 5.243828 C 7.807537 5.557281 7.947805 5.691063 8.201104 5.808605 C 8.841744 6.105877 9.184087 6.654778 9.346224 7.311386 C 9.388788 7.483753 9.449702 7.588398 9.577293 7.691956 C 9.902795 7.956146 9.943391 8.293861 9.615307 8.539337 C 9.26891 8.798531 9.267436 9.111748 9.292484 9.5112 M 8.70526 9.910439 C 8.679668 10.105297 8.800992 10.373482 8.557276 10.466778 C 8.315636 10.559288 8.212118 10.287468 8.072766 10.152008 C 7.6614 9.75214 7.263438 9.338444 6.861957 8.928471 C 6.61536 8.676651 6.304632 8.684563 6.01338 8.771049 C 5.72604 8.856377 5.83078 9.14156 5.820586 9.350178 C 5.794154 9.891071 5.732174 10.436726 5.774885 10.973274 C 5.899131 12.534126 5.772954 14.094769 5.787786 15.654785 C 5.802445 17.196529 5.859485 18.740295 5.804684 20.331499 C 6.008365 20.302637 6.172573 20.352921 6.317814 20.502136 C 6.918161 21.118895 7.498201 21.762293 8.151754 22.318256 C 8.69122 22.777166 8.749212 23.328047 8.707922 23.947855 C 8.699385 24.075994 8.701676 24.216469 8.564292 24.278927 C 8.414718 24.346926 8.331131 24.222733 8.242912 24.134827 C 7.76856 23.662144 7.294396 23.189255 6.822681 22.713942 C 6.316904 22.204308 5.66805 21.770254 5.807049 21.26022 C 5.807049 21.851358 5.807049 22.809362 5.807049 23.794731 C 6.059065 23.758499 6.211947 23.877272 6.364644 24.031685 C 6.947626 24.621222 7.50531 25.244152 8.143236 25.768478 C 8.712502 26.236368 8.743116 26.810402 8.707987 27.442116 C 8.700845 27.570532 8.690052 27.706137 8.539391 27.753403 C 8.404912 27.795591 8.339561 27.682573 8.263154 27.606485 C 7.709983 27.055603 7.178766 26.480526 6.599748 25.958408 C 6.108109 25.515079 5.787178 25.031048 5.878514 24.343117 C 5.880428 24.328701 5.838962 24.308527 5.766273 24.24864 C 5.758914 25.284119 5.868294 26.275629 5.807507 27.128382 C 6.975607 27.9135 7.764793 28.952662 8.748697 29.828257 C 8.748697 25.655266 8.748697 21.51483 8.748697 17.328854 C 8.538989 17.482292 8.395142 17.397923 8.236311 17.234291 C 7.570109 16.547947 6.885362 15.87965 6.213974 15.198269 C 5.847205 14.826046 5.758636 13.964367 6.024459 13.488659 C 6.213936 13.475986 6.29791 13.628819 6.40907 13.737091 C 6.911457 14.226433 7.410686 14.719028 7.914949 15.206425 C 8.346954 15.623978 8.849037 15.99984 8.734467 16.72496 C 8.766168 16.296001 8.766146 15.88171 8.766171 15.467426 C 8.766303 13.378483 8.767375 11.289532 8.765704 9.200596 C 8.765415 8.839512 8.760053 8.83952 8.374655 8.750336 C 8.74183 9.086563 8.703008 9.460258 8.70526 9.910439 M 5.898762 28.446709 C 5.898762 28.228828 5.898762 28.010948 5.898762 27.793068 C 5.756469 28.501802 5.824224 29.211987 5.828921 29.921297 C 5.829929 30.073317 5.871288 30.225794 6.052951 30.230883 C 6.43715 30.241642 6.829486 30.309635 7.208168 30.17119 C 7.180755 29.893877 6.980929 29.792675 6.850088 29.641253 C 6.531865 29.272974 6.091594 29.007311 5.898762 28.446709 Z"/>
        <path id="path3" fill="#ffffff" stroke="none" d="M 50.761868 24.616322 C 50.760262 22.22476 50.791618 19.880449 50.748825 17.537487 C 50.697021 14.70145 50.732834 11.865959 50.730801 9.030273 C 50.730644 8.809574 50.616169 8.731293 50.475681 8.620182 C 50.086407 8.312298 50.064209 8.049782 50.42263 7.709824 C 50.583096 7.557625 50.665569 7.399105 50.718616 7.189949 C 50.87875 6.55862 51.218597 6.058861 51.837574 5.785809 C 52.030834 5.700562 52.185841 5.617466 52.143356 5.331665 C 52.088181 4.960464 52.358299 4.752697 52.68185 4.732506 C 53.053425 4.70932 53.29641 4.949371 53.260082 5.331337 C 53.233734 5.608383 53.3703 5.700542 53.569969 5.787487 C 54.251896 6.084415 54.653778 6.599808 54.750149 7.337959 C 54.772354 7.508026 54.89156 7.574543 54.992695 7.671509 C 55.333614 7.998375 55.356018 8.309132 55.005222 8.602242 C 54.793659 8.779018 54.738033 8.966599 54.738087 9.220734 C 54.739548 16.09251 54.736996 22.964294 54.731731 29.836071 C 54.731552 30.072519 54.783627 30.252237 54.97998 30.417366 C 55.333542 30.714703 55.316063 31.006527 54.957737 31.332067 C 54.84877 31.431059 54.760563 31.516247 54.741894 31.679823 C 54.660805 32.390446 54.229187 32.859657 53.635632 33.197441 C 53.408089 33.326935 53.217091 33.417046 53.248215 33.760204 C 53.275368 34.059708 53.02647 34.276161 52.726521 34.268223 C 52.402069 34.259644 52.152889 34.079479 52.132332 33.708 C 52.127174 33.614807 52.146027 33.520287 52.156708 33.392029 C 51.322449 33.066113 50.978172 32.384338 50.606632 31.595222 C 50.315235 30.976322 50.08128 30.619665 50.700047 30.143816 C 50.794155 30.071442 50.758213 29.811712 50.758633 29.63858 C 50.762669 27.980448 50.761593 26.322306 50.761868 24.616322 M 54.145424 12.560371 C 54.145424 12.560371 54.147976 12.564198 54.150185 12.473934 C 54.169838 11.375019 54.194016 10.276157 54.206562 9.177162 C 54.210678 8.816196 54.196884 8.81604 53.898369 8.813419 C 54.279652 9.343033 54.163956 9.908527 54.082439 10.465134 C 53.808586 10.522236 53.712818 10.35376 53.592422 10.23407 C 53.151588 9.795841 52.715347 9.352951 52.272198 8.917072 C 52.010235 8.659397 51.67252 8.677235 51.373737 8.776722 C 51.10207 8.867176 51.215889 9.164116 51.214668 9.370857 C 51.205154 10.980812 51.208298 12.590836 51.207825 14.200844 C 51.206825 17.628223 51.205826 21.055599 51.205196 24.482975 C 51.204868 26.252558 51.203861 28.022146 51.207687 29.791721 C 51.20808 29.974121 51.164101 30.221865 51.441628 30.235691 C 51.862095 30.256632 52.288925 30.30757 52.768143 30.181587 C 52.462872 29.730343 52.071003 29.430161 51.735535 29.08049 C 51.319092 28.64642 51.203033 27.925314 51.503746 27.252151 C 52.464691 28.115368 53.372547 28.988686 54.217041 29.961838 C 54.217041 29.767748 54.217052 29.592659 54.217041 29.417572 C 54.216816 25.213371 54.217594 21.009172 54.21402 16.804974 C 54.213791 16.537128 54.263214 16.26178 54.145809 16.005154 C 54.145809 16.005154 54.147221 16.007717 54.150124 15.917664 C 54.161865 15.253345 54.140202 14.589813 54.197281 13.924438 C 54.236012 13.472935 54.275013 13.00774 54.145424 12.560371 Z"/>
        <path id="path4" fill="#ffffff" stroke="none" d="M 46.467606 33.057053 C 46.599735 33.278709 46.714184 33.46912 46.830914 33.658123 C 46.896923 33.765007 47.001579 33.869869 46.897499 34.000587 C 46.805069 34.116688 46.673725 34.09687 46.544712 34.065804 C 45.457031 33.803886 44.459461 33.363991 43.675312 32.541199 C 43.447075 32.301704 43.256142 32.24754 42.926941 32.348312 C 40.992134 32.940594 39.021599 33.024426 37.030926 32.677406 C 36.987656 32.669861 36.949371 32.63369 36.894005 32.602577 C 36.928539 32.301994 37.176952 32.296947 37.381706 32.24836 C 39.509159 31.74354 41.473972 30.867126 43.29673 29.665506 C 43.400452 29.597132 43.494968 29.514803 43.664291 29.384844 C 42.756805 29.207756 41.885677 29.496416 41.043037 29.154577 C 42.612576 28.460995 44.095074 27.671152 45.335445 26.400795 C 44.977272 26.270313 44.642838 26.466217 44.254543 26.207636 C 45.673367 25.012299 46.688274 23.572424 47.18906 21.821796 C 47.526672 21.885685 47.51828 22.102617 47.526978 22.280485 C 47.572853 23.218449 47.753662 24.142471 47.77808 25.085262 C 47.792286 25.633474 47.969913 26.177542 48.075436 26.723202 C 48.093311 26.815643 48.137486 26.906418 48.058136 27.031128 C 47.651955 27.15102 47.43914 26.667933 47.009792 26.646421 C 46.985081 27.272751 47.067284 27.883694 47.144444 28.488771 C 47.240784 29.244274 47.345325 30.002092 47.581879 30.732056 C 47.617828 30.842976 47.636337 30.959528 47.524628 31.034651 C 47.417305 31.106829 47.308266 31.053907 47.211365 30.995125 C 46.841846 30.77096 46.509739 30.498726 46.196167 30.202244 C 46.108978 30.119808 46.05685 29.981941 45.844139 29.998047 C 45.765205 31.064322 46.021114 32.060562 46.467606 33.057053 Z"/>
        <path id="path5" fill="#ffffff" stroke="none" d="M 14.158883 30.774513 C 14.222092 30.469467 14.245401 30.205362 14.191097 29.884218 C 13.745854 30.206877 13.432979 30.621183 12.988954 30.866547 C 12.828183 30.955387 12.669704 31.160036 12.478092 31.031464 C 12.27661 30.896265 12.423231 30.682625 12.468274 30.506611 C 12.788634 29.254702 12.96137 27.985041 12.981093 26.600891 C 12.697576 26.759649 12.482963 26.881264 12.266859 27.000172 C 12.169611 27.053684 12.066295 27.123121 11.958445 27.035252 C 11.860107 26.95513 11.854566 26.839788 11.894105 26.728388 C 12.251024 25.722761 12.218853 24.660059 12.346774 23.621334 C 12.395292 23.227379 12.388854 22.826927 12.417976 22.430208 C 12.434995 22.198381 12.415223 21.947636 12.755666 21.692223 C 13.333801 23.493217 14.264164 25.034834 15.802947 26.202749 C 15.382196 26.461531 15.042479 26.299948 14.631869 26.360584 C 15.898809 27.648716 17.388668 28.467667 18.986828 29.148258 C 18.128101 29.588346 17.248751 29.218824 16.283108 29.36018 C 17.15464 29.977646 17.975504 30.474329 18.840244 30.894445 C 20.086412 31.499863 21.374023 31.995701 22.737009 32.27618 C 22.90847 32.311462 23.080791 32.360863 23.101261 32.634277 C 22.668962 32.70623 22.240181 32.819435 21.806633 32.842316 C 20.162008 32.929108 18.530649 32.837368 16.951763 32.316544 C 16.706371 32.235596 16.56605 32.315262 16.408737 32.473793 C 15.600922 33.28788 14.621972 33.790936 13.511568 34.05286 C 13.369621 34.086338 13.220751 34.144787 13.113256 34.010078 C 12.999622 33.867668 13.103351 33.741085 13.187758 33.624046 C 13.792722 32.785206 14.040681 31.82407 14.158883 30.774513 Z"/>
        <path id="path6" fill="#ffffff" stroke="none" d="M 14.816174 35.633549 C 11.882757 35.6348 8.997186 35.636162 6.111615 35.636303 C 5.936384 35.636311 5.76056 35.63385 5.586078 35.619541 C 5.389153 35.603394 5.250594 35.5028 5.242076 35.29261 C 5.232213 35.04921 5.393362 34.959236 5.6064 34.939522 C 5.717157 34.929268 5.829341 34.932877 5.940881 34.932869 C 21.883284 34.932388 37.825687 34.932121 53.768089 34.932262 C 53.959354 34.932266 54.150871 34.932514 54.341816 34.941925 C 54.551445 34.952263 54.725986 35.02433 54.731178 35.270458 C 54.736919 35.54248 54.551258 35.618835 54.321468 35.629608 C 54.178253 35.63633 54.034588 35.634445 53.891121 35.634445 C 40.882088 35.634209 27.873053 35.633793 14.816174 35.633549 Z"/>
        <path id="path7" fill="#ffffff" stroke="none" d="M 7.54361 49.499573 C 8.43575 49.498936 9.280087 49.493481 10.12431 49.500935 C 10.36904 49.50309 10.694251 49.454521 10.703465 49.825691 C 10.71257 50.19231 10.404357 50.176594 10.146792 50.176685 C 6.928934 50.177803 3.711072 50.178211 0.493218 50.174397 C 0.300768 50.174171 0.024042 50.238644 0.021203 49.930126 C 0.018837 49.673096 0.229534 49.548641 0.472359 49.518673 C 0.645487 49.497303 0.821573 49.492764 0.996334 49.49284 C 3.162811 49.49382 5.329288 49.497028 7.54361 49.499573 Z"/>
        <path id="path8" fill="#ffffff" stroke="none" d="M 50.512749 49.493477 C 53.411896 49.492561 56.263741 49.491566 59.115589 49.490135 C 59.322899 49.490032 59.534573 49.475399 59.726631 49.567028 C 59.877949 49.639221 59.990376 49.767689 59.97784 49.942047 C 59.962631 50.153381 59.782642 50.171349 59.621017 50.174194 C 59.254704 50.180634 58.888203 50.17646 58.521778 50.176483 C 55.685841 50.17667 52.849899 50.176868 50.013962 50.176846 C 49.90247 50.176846 49.790699 50.179234 49.679543 50.172493 C 49.479908 50.160397 49.345978 50.071026 49.338623 49.852932 C 49.331333 49.636909 49.457863 49.52039 49.653667 49.5056 C 49.923035 49.48526 50.194744 49.495911 50.512749 49.493477 Z"/>
        <path id="path9" fill="#ffffff" stroke="none" d="M 18.065784 41.115101 C 16.939182 41.102676 16.948498 41.102978 16.984409 39.989136 C 16.995453 39.646538 17.124928 39.493507 17.468212 39.512531 C 17.62536 39.521244 17.783903 39.501884 17.941881 39.499428 C 18.053705 39.497688 18.164213 39.510994 18.25371 39.587982 C 18.510555 39.808937 18.401052 40.919521 18.065784 41.115101 Z"/>
        <path id="path10" fill="#ffffff" stroke="none" d="M 5.8897 10.478809 C 5.898509 10.284874 5.829994 10.090496 6.032955 10.026772 C 6.193117 9.976482 6.290163 10.123291 6.389414 10.222229 C 7.053751 10.884483 7.713391 11.551468 8.379508 12.211926 C 8.843034 12.671513 8.711228 13.24474 8.666896 13.78759 C 8.649146 14.004948 8.452029 13.992519 8.310093 13.850517 C 7.556761 13.096863 6.797011 12.349171 6.061274 11.578609 C 5.780806 11.284866 5.924368 10.878895 5.8897 10.478809 Z"/>
        <path id="path11" fill="#ffffff" stroke="none" d="M 6.992383 19.42598 C 6.799 19.234266 6.649275 19.039188 6.457981 18.902124 C 5.746381 18.392265 5.871789 17.677242 5.918234 16.981659 C 6.172172 16.856998 6.270861 17.042843 6.386261 17.156544 C 7.065921 17.82618 7.741026 18.500467 8.414836 19.176006 C 8.663576 19.425386 8.827583 20.403177 8.669695 20.706823 C 8.535995 20.963949 8.397141 20.831625 8.264131 20.698338 C 7.848518 20.281858 7.432699 19.865591 6.992383 19.42598 Z"/>
        <path id="path12" fill="#ffffff" stroke="none" d="M 54.143929 12.558632 C 54.14423 12.906185 54.149937 13.255527 54.145714 13.604755 C 54.144207 13.729008 54.145885 13.875355 53.99593 13.92347 C 53.876621 13.961742 53.787094 13.880047 53.706074 13.798454 C 52.978363 13.065632 52.211708 12.366688 51.536407 11.588451 C 51.148464 11.141376 51.354694 10.552197 51.408558 10.023407 C 51.452297 9.999302 51.496037 9.975193 51.539776 9.951088 C 52.392159 10.808819 53.244541 11.666557 54.122452 12.544247 C 54.147976 12.564198 54.145424 12.560371 54.143929 12.558632 Z"/>
        <path id="path13" fill="#ffffff" stroke="none" d="M 54.144878 16.004108 C 54.111595 16.466953 54.232761 16.945606 54.055584 17.384964 C 53.842602 17.416451 53.750828 17.299049 53.650272 17.198807 C 52.975445 16.52607 52.299919 15.854019 51.626362 15.180012 C 51.12785 14.681171 51.430962 14.077847 51.434566 13.469292 C 52.415154 14.216721 53.229683 15.121326 54.122036 15.988033 C 54.147221 16.007717 54.145809 16.005154 54.144878 16.004108 Z"/>
        <path id="path14" fill="#ffffff" stroke="none" d="M 52.210167 24.446335 C 52.743229 24.974533 53.255375 25.47584 53.761189 25.983461 C 54.20216 26.426008 54.299561 27.11137 54.017521 27.726383 C 53.802479 27.769995 53.712883 27.596262 53.593136 27.47711 C 53.028809 26.915609 52.50547 26.303932 51.891045 25.804161 C 51.203888 25.245232 51.350864 24.561405 51.379627 23.831903 C 51.814342 23.864437 51.932613 24.235144 52.210167 24.446335 Z"/>
        <path id="path15" fill="#ffffff" stroke="none" d="M 54.149151 23.651716 C 54.141678 23.894602 54.210888 24.112215 54.026066 24.275169 C 53.808102 24.3204 53.711681 24.149605 53.592381 24.031717 C 53.048485 23.494301 52.553585 22.895546 51.956196 22.427053 C 51.232868 21.859793 51.331924 21.149269 51.36985 20.419001 C 51.632069 20.311996 51.724678 20.500425 51.839859 20.613819 C 52.45277 21.217192 53.045624 21.841696 53.673569 22.428768 C 54.0284 22.760496 54.212151 23.126385 54.149151 23.651716 Z"/>
        <path id="path16" fill="#ffffff" stroke="none" d="M 51.352791 17.134949 C 51.450253 16.787666 51.613636 16.93306 51.736866 17.05545 C 52.480896 17.79443 53.246006 18.515379 53.944916 19.295355 C 54.340508 19.736828 54.145657 20.298044 54.074566 20.805021 C 53.804615 20.847769 53.705658 20.685568 53.584606 20.565477 C 53.054432 20.039503 52.568058 19.458166 51.98494 18.999784 C 51.348938 18.499846 51.29694 17.873112 51.352791 17.134949 Z"/>
    </g>
</svg>
