<?xml version="1.0" encoding="UTF-8"?>
<!-- Generated by Pixelmator Pro 3.0 -->
<svg width="20" height="20" viewBox="0 0 20 20" xmlns="http://www.w3.org/2000/svg" xmlns:xlink="http://www.w3.org/1999/xlink">
    <g id="Group">
        <g id="g1">
            <path id="Path" fill="#f89369" stroke="none" d="M 4.910816 0.223265 C 4.585714 1.088776 3.892653 3.011633 3.892653 3.042856 C 3.892653 3.097755 7.103878 9.567142 7.123469 9.551632 C 7.131224 9.543878 7.624694 8.611836 8.219999 7.487756 L 9.300817 5.435714 L 9.046327 4.981428 C 8.905307 4.726938 8.219999 3.50898 7.522857 2.271429 L 6.25 0.01959 L 5.623469 0.007755 L 4.996939 0 L 4.910816 0.223265 Z"/>
            <path id="path1" fill="#f89369" stroke="none" d="M 13.749796 0.02755 C 13.738164 0.047142 12.300817 2.659184 10.550204 5.835306 C 8.803673 9.011224 7.131429 12.046326 6.837755 12.574898 L 6.305102 13.542245 L 6.03102 13.330816 C 4.100408 11.858367 1.347143 12.520205 0.325102 14.701428 C 0.058776 15.277143 0 15.547346 0 16.291428 C 0 17.035511 0.058776 17.305714 0.325102 17.881428 C 0.806735 18.907551 1.687959 19.635918 2.819796 19.937347 C 3.289796 20.06653 4.116122 20.06653 4.519388 19.941225 C 5.337959 19.682653 5.91347 19.193266 6.575306 18.190613 C 7.025714 17.509184 7.914694 15.903469 9.512449 12.89204 C 9.766938 12.414286 9.986326 12.022653 10.002041 12.022653 C 10.029387 12.022653 10.902857 13.62449 12.27347 16.189592 C 13.080204 17.697348 13.318979 18.108572 13.679387 18.590204 C 13.95347 18.958366 14.49 19.475306 14.791428 19.651428 C 15.261429 19.93347 15.887959 20.078367 16.483265 20.039183 C 18.120205 19.929592 19.475307 18.821224 19.898163 17.243061 C 19.988367 16.914082 20 16.781021 20 16.291428 C 20 15.805715 19.988367 15.668776 19.898163 15.343674 C 19.733673 14.724897 19.436123 14.192245 19.001429 13.722448 C 17.685511 12.31653 15.508163 12.144285 13.973061 13.326939 L 13.694898 13.542245 L 12.962654 12.187347 L 12.226326 10.832245 L 12.308571 10.695102 C 12.480816 10.409388 16.111225 3.133062 16.111225 3.074286 C 16.111225 3.027346 15.425919 1.108368 15.093061 0.223265 L 15.010816 0 L 14.388164 0 C 14.047347 0 13.757551 0.011837 13.749796 0.02755 Z M 4.268571 15.155714 C 4.511429 15.273265 4.750204 15.516123 4.87551 15.762653 C 5.012653 16.044693 5.012653 16.538162 4.87551 16.82 C 4.750204 17.066734 4.511225 17.305714 4.26449 17.430817 C 4.103878 17.509184 4.01 17.524899 3.735714 17.524899 C 3.344082 17.524899 3.113061 17.434898 2.85449 17.172449 C 2.196531 16.51449 2.466735 15.382653 3.351837 15.093061 C 3.59898 15.014898 4.029796 15.042245 4.268571 15.155714 Z M 16.800409 15.155714 C 17.043264 15.273265 17.282042 15.516123 17.407347 15.762653 C 17.544489 16.044693 17.544489 16.538162 17.407347 16.82 C 17.282042 17.066734 17.04306 17.305714 16.79653 17.430817 C 16.635918 17.509184 16.54204 17.524899 16.267756 17.524899 C 15.876122 17.524899 15.645102 17.434898 15.386531 17.172449 C 14.728572 16.51449 14.998775 15.382653 15.883878 15.093061 C 16.130817 15.014898 16.561632 15.042245 16.800409 15.155714 Z"/>
        </g>
    </g>
</svg>
